<svg xmlns="http://www.w3.org/2000/svg" viewBox="0 0 343.31 164.14"><defs><style>.cls-1{fill:#f7f7ff;}</style></defs><g id="Laag_2" data-name="Laag 2"><g id="Laag_1-2" data-name="Laag 1"><path class="cls-1" d="M47.31,19a17.82,17.82,0,0,0-2.54-1.89,31.22,31.22,0,0,0-4.48-2.34,38.88,38.88,0,0,0-5.73-1.94,25.09,25.09,0,0,0-6.28-.8q-5.67,0-8.46,2.09A6.94,6.94,0,0,0,17,20a6,6,0,0,0,1,3.64,9,9,0,0,0,3,2.54,25.92,25.92,0,0,0,5,2q3,.9,7,1.89c3.46.93,6.59,1.93,9.42,3a25.56,25.56,0,0,1,7.17,4,16.63,16.63,0,0,1,4.53,5.73A19.06,19.06,0,0,1,55.87,51a20.45,20.45,0,0,1-2.14,9.71A18,18,0,0,1,48,67.23a25.36,25.36,0,0,1-8.37,3.64A42.22,42.22,0,0,1,29.68,72a53.33,53.33,0,0,1-15.74-2.39A48.41,48.41,0,0,1,0,62.85L6.08,51a19,19,0,0,0,3.23,2.34,49.09,49.09,0,0,0,5.53,2.88,41.81,41.81,0,0,0,7.07,2.44,31.65,31.65,0,0,0,8,1q11.36,0,11.35-7.27a6,6,0,0,0-1.29-3.88,10.85,10.85,0,0,0-3.69-2.79,34.68,34.68,0,0,0-5.77-2.19c-2.26-.67-4.79-1.4-7.57-2.2a63.8,63.8,0,0,1-8.82-3,23.11,23.11,0,0,1-6.22-3.89,14.41,14.41,0,0,1-3.74-5.18,17.91,17.91,0,0,1-1.24-7,22,22,0,0,1,2-9.56,19.21,19.21,0,0,1,5.53-7,24.87,24.87,0,0,1,8.21-4.23A33.77,33.77,0,0,1,28.69,0,39,39,0,0,1,42.43,2.34a51.4,51.4,0,0,1,11,5.53Z"/><path class="cls-1" d="M125.69.5V71.21H112.05V41H80V71.21H66.23V.5H80V29.08h32.07V.5Z"/><path class="cls-1" d="M170.61,71.71a32,32,0,0,1-14.09-3,34.52,34.52,0,0,1-10.86-8.06,37.46,37.46,0,0,1-9.51-24.75,35.55,35.55,0,0,1,2.64-13.55,37.27,37.27,0,0,1,7.27-11.45,34.75,34.75,0,0,1,11-7.92A32.6,32.6,0,0,1,170.91,0a31.12,31.12,0,0,1,14,3.14,35,35,0,0,1,10.8,8.22,37.65,37.65,0,0,1,7,11.55,36.38,36.38,0,0,1,2.49,13.15,35.67,35.67,0,0,1-2.59,13.49,36.35,36.35,0,0,1-7.17,11.35,34.22,34.22,0,0,1-10.95,7.87A32.68,32.68,0,0,1,170.61,71.71ZM150.09,35.86a28.41,28.41,0,0,0,1.4,8.86,23.7,23.7,0,0,0,4,7.57A20.09,20.09,0,0,0,162,57.57a20.07,20.07,0,0,0,17.53,0A20.09,20.09,0,0,0,186,52.09a23.89,23.89,0,0,0,4-7.62,28.16,28.16,0,0,0,1.35-8.61A27.66,27.66,0,0,0,189.89,27a24.64,24.64,0,0,0-4.09-7.57,19.63,19.63,0,0,0-6.47-5.23,20.19,20.19,0,0,0-17.48.1,19.87,19.87,0,0,0-6.48,5.38,24.23,24.23,0,0,0-3.93,7.57A28.22,28.22,0,0,0,150.09,35.86Z"/><path class="cls-1" d="M245.61,59.56a15.79,15.79,0,0,0,8.22-2,16,16,0,0,0,5.37-5.18,21.06,21.06,0,0,0,2.89-7.32,41.92,41.92,0,0,0,.85-8.51V.5h13.65V36.56a51.63,51.63,0,0,1-1.75,13.64,31.19,31.19,0,0,1-5.48,11.15,26.21,26.21,0,0,1-9.61,7.57,32.5,32.5,0,0,1-14,2.79,32.07,32.07,0,0,1-14.39-2.94A26.81,26.81,0,0,1,221.7,61a31.29,31.29,0,0,1-5.33-11.21,53.07,53.07,0,0,1-1.64-13.24V.5h13.75V36.56a43.13,43.13,0,0,0,.84,8.61,21.53,21.53,0,0,0,2.89,7.32,15.86,15.86,0,0,0,5.33,5.13A15.66,15.66,0,0,0,245.61,59.56Z"/><path class="cls-1" d="M343.31,12.55h-22.6V71.21H307.06V12.55H284.45V.5h58.86Z"/><path class="cls-1" d="M35.36,164.14a32.1,32.1,0,0,1-14.1-3A34.59,34.59,0,0,1,10.41,153,37.32,37.32,0,0,1,.9,128.29a35.73,35.73,0,0,1,2.63-13.55,37.46,37.46,0,0,1,7.27-11.45,34.75,34.75,0,0,1,11-7.92,32.68,32.68,0,0,1,13.85-2.94,31.08,31.08,0,0,1,14,3.14,34.84,34.84,0,0,1,10.8,8.22,37.48,37.48,0,0,1,7,11.55,36.38,36.38,0,0,1,2.49,13.15A35.86,35.86,0,0,1,67.33,142a36.72,36.72,0,0,1-7.17,11.35,34.38,34.38,0,0,1-11,7.87A32.63,32.63,0,0,1,35.36,164.14ZM14.84,128.29a28.13,28.13,0,0,0,1.4,8.86,23.4,23.4,0,0,0,4,7.57A20.05,20.05,0,0,0,26.74,150a18.61,18.61,0,0,0,8.72,2,18.47,18.47,0,0,0,8.81-2,19.88,19.88,0,0,0,6.47-5.43,24.11,24.11,0,0,0,4-7.62,28.45,28.45,0,0,0,1.34-8.61,27.66,27.66,0,0,0-1.44-8.87,24.62,24.62,0,0,0-4.08-7.57,19.57,19.57,0,0,0-6.48-5.23,18.83,18.83,0,0,0-8.61-1.94,18.77,18.77,0,0,0-8.87,2,19.73,19.73,0,0,0-6.47,5.38,24.25,24.25,0,0,0-3.94,7.57A28.52,28.52,0,0,0,14.84,128.29Z"/><path class="cls-1" d="M110.35,152a15.74,15.74,0,0,0,8.22-2,16,16,0,0,0,5.38-5.18,21.45,21.45,0,0,0,2.89-7.32,42.64,42.64,0,0,0,.84-8.51V92.93h13.65V129a51.22,51.22,0,0,1-1.75,13.64,31.17,31.17,0,0,1-5.47,11.15,26.29,26.29,0,0,1-9.61,7.57,32.37,32.37,0,0,1-14,2.79,32.13,32.13,0,0,1-14.39-2.94,26.69,26.69,0,0,1-9.61-7.76,31.12,31.12,0,0,1-5.33-11.21A52.61,52.61,0,0,1,79.48,129V92.93H93.22V129a42.4,42.4,0,0,0,.85,8.61A21.33,21.33,0,0,0,97,144.92,15,15,0,0,0,110.35,152Z"/><path class="cls-1" d="M208.06,105H185.45v58.66H171.81V105H149.2v-12h58.86Z"/><path class="cls-1" d="M218.12,137.05V92.23h13.34v44.82Zm0,26.59v-15h13.34v15Z"/></g></g></svg>